<?xml version="1.0" encoding="UTF-8"?>
<svg width="512" height="512" viewBox="0 0 24 24" fill="none" xmlns="http://www.w3.org/2000/svg">
  <path d="M21.5287 15.9294C21.3687 15.6594 20.9187 15.2394 19.7987 15.4394C19.1787 15.5494 18.5487 15.5994 17.9187 15.5694C15.5887 15.4694 13.4787 14.3994 12.0087 12.7494C10.7087 11.2994 9.90873 9.40938 9.89873 7.36938C9.89873 6.22938 10.1187 5.12938 10.5687 4.08938C11.0087 3.07938 10.6987 2.54938 10.4787 2.32938C10.2487 2.09938 9.70873 1.77938 8.64873 2.21938C4.55873 3.93938 2.02873 8.03938 2.32873 12.4294C2.62873 16.5594 5.52873 20.0894 9.37873 21.4194C10.1087 21.6594 10.8587 21.8394 11.6287 21.9494C12.0087 22.0094 12.3887 22.0394 12.7787 22.0394C13.0487 22.0394 13.3187 22.0294 13.5887 21.9994C17.4787 21.6594 20.9287 19.3594 22.3687 15.7394C22.5187 15.3294 22.0087 14.5094 21.5287 15.9294Z" fill="url(#paint0_linear)"/>
  <defs>
    <linearGradient id="paint0_linear" x1="2.27873" y1="12.0694" x2="22.3787" y2="12.0694" gradientUnits="userSpaceOnUse">
      <stop stop-color="#A855F7"/>
      <stop offset="1" stop-color="#EC4899"/>
    </linearGradient>
  </defs>
</svg> 